<?xml version="1.0" encoding="UTF-8"?>
<svg width="327px" height="186px" viewBox="0 0 327 186" version="1.1" xmlns="http://www.w3.org/2000/svg" xmlns:xlink="http://www.w3.org/1999/xlink">
    <!-- Generator: Sketch 49 (51002) - http://www.bohemiancoding.com/sketch -->
    <title>Page 1</title>
    <desc>Created with Sketch.</desc>
    <defs>
        <polygon id="path-1" points="0 186 326.848 186 326.848 0.579 0 0.579"></polygon>
    </defs>
    <g id="Page-1" stroke="none" stroke-width="1" fill="none" fill-rule="evenodd">
        <g transform="translate(0.000000, -1.000000)">
            <polygon id="Fill-1" fill="#0083A8" points="26.6292 165.1558 26.6292 168.3548 31.8542 168.3548 31.8542 186.0078 35.3832 186.0078 35.3832 168.3548 40.6082 168.3548 40.6082 165.1558"></polygon>
            <polygon id="Fill-2" fill="#0083A8" points="47.7216 165.1558 47.7216 186.0078 59.1156 186.0078 59.1156 182.8088 51.2516 182.8088 51.2516 176.9338 58.3996 176.9338 58.3996 173.7348 51.2516 173.7348 51.2516 168.3548 58.9506 168.3548 58.9506 165.1558"></polygon>
            <g id="Group-28" transform="translate(0.000000, 0.421000)">
                <path d="M74.0522,173.4726 C72.1322,172.4786 70.4742,171.6186 70.4742,169.9366 C70.4742,167.7566 72.2592,167.5216 73.0262,167.5216 C73.8872,167.5216 74.5022,167.7186 74.9032,168.1246 C75.3722,168.6006 75.5932,169.4156 75.5782,170.6186 L75.5722,171.1236 L79.1982,171.1236 L79.2172,170.6446 C79.3022,168.5716 78.8252,166.9786 77.8022,165.9116 C76.7892,164.8576 75.2472,164.3226 73.2192,164.3226 C69.3732,164.3226 66.8892,166.6336 66.8892,170.2106 C66.8892,173.7246 69.6682,175.1686 72.1202,176.4436 C74.0942,177.4686 75.7982,178.3546 75.7982,180.0826 C75.7982,181.9106 74.8022,182.7996 72.7512,182.7996 C71.6952,182.7996 69.9242,182.4046 69.9242,179.7526 L69.9242,178.6746 L66.4362,178.6746 L66.4222,179.1596 C66.3912,180.2206 66.3192,182.7016 67.9402,184.3706 C68.9902,185.4516 70.5622,185.9996 72.6152,185.9996 L72.6162,185.9996 L72.7232,185.9986 C77.0182,185.9986 79.3832,183.8586 79.3832,179.9726 C79.3832,176.2336 76.5512,174.7666 74.0522,173.4726" id="Fill-3" fill="#0083A8"></path>
                <polygon id="Fill-5" fill="#0083A8" points="85.9194 167.9345 91.1444 167.9345 91.1444 185.5865 94.6734 185.5865 94.6734 167.9345 99.8984 167.9345 99.8984 164.7345 85.9194 164.7345"></polygon>
                <mask id="mask-2" fill="white">
                    <use xlink:href="#path-1"></use>
                </mask>
                <g id="Clip-8"></g>
                <polygon id="Fill-7" fill="#0083A8" mask="url(#mask-2)" points="107.342 185.587 110.872 185.587 110.872 164.734 107.342 164.734"></polygon>
                <polygon id="Fill-9" fill="#0083A8" mask="url(#mask-2)" points="131.6504 180.041 124.6904 164.734 120.2944 164.734 120.2944 185.587 123.5494 185.587 123.5494 170.059 130.6184 185.587 134.9054 185.587 134.9054 164.734 131.6504 164.734"></polygon>
                <path d="M150.4931,164.3222 C146.2081,164.3222 143.7511,166.8702 143.7511,171.3112 L143.7511,177.8282 C143.7511,183.4022 145.8931,185.9992 150.4931,185.9992 C152.8581,185.9992 154.8651,185.5082 156.8081,184.4542 L157.0701,184.3122 L157.0701,173.8632 L149.8831,173.8632 L149.8831,177.0632 L153.5401,177.0632 L153.5401,182.2302 C152.9741,182.5552 151.9171,182.8822 150.4931,182.8822 C148.4461,182.8822 147.3361,182.0932 147.3361,177.9372 L147.3361,171.2282 C147.3361,168.0962 149.0531,167.4392 150.4931,167.4392 C152.6381,167.4392 153.5131,168.3382 153.5131,170.5412 L153.5131,171.0412 L157.1331,171.0412 L157.1521,170.5602 C157.2341,168.5012 156.7951,167.0022 155.8111,165.9782 C154.7251,164.8482 153.0351,164.3222 150.4931,164.3222" id="Fill-10" fill="#0083A8" mask="url(#mask-2)"></path>
                <path d="M184.9868,173.4726 C183.0668,172.4786 181.4088,171.6186 181.4088,169.9366 C181.4088,167.7566 183.1928,167.5216 183.9608,167.5216 C184.8228,167.5216 185.4368,167.7186 185.8388,168.1246 C186.3068,168.6006 186.5288,169.4156 186.5128,170.6186 L186.5078,171.1236 L190.1328,171.1236 L190.1528,170.6446 C190.2368,168.5706 189.7598,166.9786 188.7358,165.9116 C187.7228,164.8576 186.1808,164.3226 184.1528,164.3226 C180.3078,164.3226 177.8238,166.6336 177.8238,170.2106 C177.8238,173.7246 180.6028,175.1686 183.0548,176.4436 C185.0288,177.4686 186.7328,178.3546 186.7328,180.0826 C186.7328,181.9106 185.7358,182.7996 183.6858,182.7996 C182.6308,182.7996 180.8588,182.4046 180.8588,179.7526 L180.8588,178.6746 L177.3718,178.6746 L177.3568,179.1596 C177.3258,180.2196 177.2538,182.7016 178.8748,184.3696 C179.9248,185.4516 181.4968,185.9996 183.5498,185.9996 L183.5508,185.9996 L183.6588,185.9986 C187.9528,185.9986 190.3168,183.8586 190.3168,179.9726 C190.3168,176.2336 187.4848,174.7666 184.9868,173.4726" id="Fill-11" fill="#0083A8" mask="url(#mask-2)"></path>
                <polygon id="Fill-12" fill="#0083A8" mask="url(#mask-2)" points="202.2261 176.5127 209.3751 176.5127 209.3751 173.3137 202.2261 173.3137 202.2261 167.9347 209.9251 167.9347 209.9251 164.7347 198.6971 164.7347 198.6971 185.5867 210.0901 185.5867 210.0901 182.3877 202.2261 182.3877"></polygon>
                <path d="M221.4214,167.9345 L224.7424,167.9345 C226.8064,167.9345 226.9104,170.0375 226.9104,170.4585 C226.9104,171.7505 226.3354,173.2585 224.7154,173.2585 L221.4214,173.2585 L221.4214,167.9345 Z M230.1094,179.8725 C230.0034,176.7855 229.5004,175.3735 227.9844,174.6995 C229.5644,173.8695 230.4944,172.2465 230.4944,170.1835 C230.4944,167.5485 229.1134,164.7345 225.2374,164.7345 L217.8914,164.7345 L217.8914,185.5865 L221.4214,185.5865 L221.4214,176.4575 L223.8914,176.4575 C225.5054,176.4575 226.2754,177.0955 226.3904,178.5285 C226.4534,179.2905 226.4834,180.0495 226.5144,180.7745 C226.5904,182.6365 226.6554,184.2445 227.2144,185.3175 L227.3544,185.5865 L230.9764,185.5865 L230.7754,184.9385 C230.4064,183.7555 230.1364,180.7115 230.1094,179.8725 Z" id="Fill-13" fill="#0083A8" mask="url(#mask-2)"></path>
                <polygon id="Fill-14" fill="#0083A8" mask="url(#mask-2)" points="244.685 180.834 240.502 164.734 236.701 164.734 242.737 185.587 246.512 185.587 252.606 164.734 248.969 164.734"></polygon>
                <polygon id="Fill-15" fill="#0083A8" mask="url(#mask-2)" points="259.856 185.587 263.385 185.587 263.385 164.734 259.856 164.734"></polygon>
                <path d="M281.7212,178.7304 L281.7172,179.2264 C281.6952,182.4074 280.0572,182.8814 279.0822,182.8814 C277.7252,182.8814 276.0352,182.8814 276.0352,177.9374 L276.0352,172.6304 C276.0352,169.7484 276.3942,169.0574 276.5112,168.8314 C276.5422,168.7704 276.5662,168.7224 276.5892,168.6594 C276.6792,168.4224 277.4122,167.4664 279.1102,167.4664 C279.6362,167.4664 280.5952,167.7064 280.9512,168.1374 C281.4092,168.6904 281.4352,169.8614 281.4142,170.6944 L281.4022,171.2064 L284.9952,171.2064 L285.0262,170.7384 C285.1682,168.5194 284.7482,166.9184 283.7422,165.8454 C282.7812,164.8204 281.3382,164.3224 279.3302,164.3224 C274.5732,164.3224 272.4502,166.6984 272.4502,172.0264 L272.4502,177.6354 C272.4502,185.9994 276.8542,185.9994 279.2202,185.9994 C280.0232,185.9994 282.1552,185.9994 283.6812,184.4464 C284.8162,183.2914 285.3702,181.5334 285.3292,179.2214 L285.3212,178.7304 L281.7212,178.7304 Z" id="Fill-16" fill="#0083A8" mask="url(#mask-2)"></path>
                <polygon id="Fill-17" fill="#0083A8" mask="url(#mask-2)" points="296.9907 182.3877 296.9907 176.5127 304.1397 176.5127 304.1397 173.3137 296.9907 173.3137 296.9907 167.9347 304.6897 167.9347 304.6897 164.7347 293.4617 164.7347 293.4617 185.5867 304.8547 185.5867 304.8547 182.3877"></polygon>
                <path d="M318.9722,168.4258 C318.9722,170.8238 317.0322,172.7298 314.6362,172.7298 C312.2292,172.7298 310.2742,170.8238 310.2742,168.4258 C310.2742,166.0518 312.2292,164.1438 314.6362,164.1438 C317.0322,164.1438 318.9722,166.0518 318.9722,168.4258 Z M310.9222,168.4378 C310.9222,170.4698 312.5772,172.0908 314.6362,172.0908 C316.6942,172.0908 318.3252,170.4698 318.3252,168.4378 C318.3252,166.4168 316.6942,164.7838 314.6362,164.7838 C312.5772,164.7838 310.9222,166.4168 310.9222,168.4378 Z M313.8132,170.9138 L313.0062,170.9138 L313.0062,165.9708 L314.9932,165.9708 C315.9542,165.9708 316.3942,166.5868 316.3942,167.2038 C316.3942,167.7858 315.9432,168.2318 315.3062,168.3458 L315.3062,168.3688 C315.9292,168.4378 316.1502,168.6308 316.1872,169.6238 C316.1962,169.8418 316.2662,170.6048 316.3812,170.9138 L315.5832,170.9138 C315.3872,170.5728 315.4332,169.9328 315.3762,169.2698 C315.3162,168.7458 314.8552,168.7108 314.6242,168.7108 L313.8132,168.7108 L313.8132,170.9138 Z M313.8132,168.0718 L314.8552,168.0718 C315.3532,168.0718 315.5832,167.7068 315.5832,167.2718 C315.5832,166.9188 315.3992,166.5198 314.8552,166.5198 L313.8132,166.5198 L313.8132,168.0718 Z" id="Fill-18" fill="#0083A8" mask="url(#mask-2)"></path>
                <polygon id="Fill-19" fill="#0083A8" mask="url(#mask-2)" points="0 148.193 105.53 148.193 105.53 42.662 0 42.662"></polygon>
                <path d="M68.4619,114.7578 C66.1399,119.1998 61.0929,122.1268 53.3199,122.1268 C43.5289,122.1268 36.9679,113.4458 36.9679,95.7808 C36.9679,75.9968 44.1349,68.5268 54.5319,68.5268 C63.4149,68.5268 68.4619,72.1478 69.8749,80.6268 L80.5749,80.6268 L80.5749,59.6438 L70.4809,59.6438 L69.9759,66.6088 C67.3519,61.8638 59.6799,58.7358 51.3019,58.7358 C35.8579,58.7358 24.9559,69.7378 24.9559,95.7808 C24.9559,120.9158 36.7659,132.1208 53.3199,132.1208 C66.6449,132.1208 77.2439,126.1648 80.4739,116.8778 L80.4739,92.0458 L51.6049,92.0458 L51.6049,101.3328 L68.4619,101.3328 L68.4619,114.7578 Z" id="Fill-20" fill="#FEFEFE" mask="url(#mask-2)"></path>
                <path d="M68.4619,114.7578 C66.1399,119.1998 61.0929,122.1268 53.3199,122.1268 C43.5289,122.1268 36.9679,113.4458 36.9679,95.7808 C36.9679,75.9968 44.1349,68.5268 54.5319,68.5268 C63.4149,68.5268 68.4619,72.1478 69.8749,80.6268 L80.5749,80.6268 L80.5749,59.6438 L70.4809,59.6438 L69.9759,66.6088 C67.3519,61.8638 59.6799,58.7358 51.3019,58.7358 C35.8579,58.7358 24.9559,69.7378 24.9559,95.7808 C24.9559,120.9158 36.7659,132.1208 53.3199,132.1208 C66.6449,132.1208 77.2439,126.1648 80.4739,116.8778 L80.4739,92.0458 L51.6049,92.0458 L51.6049,101.3328 L68.4619,101.3328 L68.4619,114.7578 Z" id="Stroke-21" stroke="#FEFEFE" stroke-width="0.485" mask="url(#mask-2)"></path>
                <polygon id="Fill-22" fill="#0083A8" mask="url(#mask-2)" points="125.5703 106.1103 210.1633 148.1933 210.1633 42.6623 125.5703 0.5783"></polygon>
                <polygon id="Fill-23" fill="#FEFEFE" mask="url(#mask-2)" points="188.81 117.8769 188.81 100.2419 180.292 96.0219 180.292 105.5299 162.553 96.7399 162.553 75.5359 183.705 86.0169 183.705 77.5159 162.553 67.0359 162.553 46.5789 180.292 55.3679 180.292 63.3369 188.81 67.5579 188.81 51.6479 146.923 30.8949 146.923 38.8349 153.175 41.9329 153.175 92.0939 146.923 88.9959 146.923 97.1229"></polygon>
                <polygon id="Stroke-24" stroke="#FEFEFE" stroke-width="0.485" mask="url(#mask-2)" points="188.81 117.8769 188.81 100.2419 180.292 96.0219 180.292 105.5299 162.553 96.7399 162.553 75.5359 183.705 86.0169 183.705 77.5159 162.553 67.0359 162.553 46.5789 180.292 55.3679 180.292 63.3369 188.81 67.5579 188.81 51.6479 146.923 30.8949 146.923 38.8349 153.175 41.9329 153.175 92.0939 146.923 88.9959 146.923 97.1229"></polygon>
                <polygon id="Fill-25" fill="#0083A8" mask="url(#mask-2)" points="220.623 148.194 326.849 148.194 326.849 42.662 220.623 42.662"></polygon>
                <path d="M262.2778,122.4297 L262.2778,68.2237 L273.7868,68.2237 C287.7158,68.2237 293.2678,75.1887 293.2678,95.6797 C293.2678,115.8687 287.7158,122.4297 273.7868,122.4297 L262.2778,122.4297 Z M273.7868,131.2117 C296.0938,131.2117 305.3818,123.3387 305.3818,95.6797 C305.3818,67.5167 296.0938,59.6437 273.7868,59.6437 L242.1908,59.6437 L242.1908,68.2237 L250.1658,68.2237 L250.1658,122.4297 L242.0898,122.4297 L242.0898,131.2117 L273.7868,131.2117 Z" id="Fill-26" fill="#FEFEFE" mask="url(#mask-2)"></path>
                <path d="M262.2778,122.4297 L262.2778,68.2237 L273.7868,68.2237 C287.7158,68.2237 293.2678,75.1887 293.2678,95.6797 C293.2678,115.8687 287.7158,122.4297 273.7868,122.4297 L262.2778,122.4297 Z M273.7868,131.2117 C296.0938,131.2117 305.3818,123.3387 305.3818,95.6797 C305.3818,67.5167 296.0938,59.6437 273.7868,59.6437 L242.1908,59.6437 L242.1908,68.2237 L250.1658,68.2237 L250.1658,122.4297 L242.0898,122.4297 L242.0898,131.2117 L273.7868,131.2117 Z" id="Stroke-27" stroke="#FEFEFE" stroke-width="0.485" mask="url(#mask-2)"></path>
            </g>
        </g>
    </g>
</svg>